<?xml version="1.0" standalone="no"?>
<!DOCTYPE svg PUBLIC "-//W3C//DTD SVG 20010904//EN"
 "http://www.w3.org/TR/2001/REC-SVG-20010904/DTD/svg10.dtd">
<svg version="1.0" xmlns="http://www.w3.org/2000/svg"
 width="704.000000pt" height="704.000000pt" viewBox="0 0 704.000000 704.000000"
 preserveAspectRatio="xMidYMid meet">
<metadata>
Created by potrace 1.14, written by Peter Selinger 2001-2017
</metadata>
<g transform="translate(0.000000,704.000000) scale(0.100000,-0.100000)"
fill="#000000" stroke="none">
<path d="M3247 6894 c-2 -2 -33 -7 -68 -9 -35 -3 -80 -7 -99 -10 -19 -3 -51
-8 -70 -10 -95 -13 -174 -26 -180 -30 -3 -2 -25 -6 -50 -10 -24 -4 -52 -11
-61 -15 -9 -5 -18 -7 -21 -5 -2 2 -44 -7 -93 -21 -50 -14 -99 -27 -109 -29
-21 -5 -112 -33 -136 -42 -8 -4 -18 -7 -22 -8 -5 -2 -10 -4 -13 -5 -3 -1 -8
-3 -12 -5 -5 -1 -17 -5 -28 -9 -11 -4 -33 -13 -50 -18 -40 -14 -157 -64 -223
-94 -28 -13 -55 -24 -60 -25 -4 -1 -36 -17 -72 -36 -36 -20 -99 -54 -140 -76
-41 -22 -77 -43 -80 -46 -3 -3 -15 -12 -27 -18 -13 -7 -33 -19 -45 -25 -13 -7
-25 -15 -28 -18 -3 -3 -41 -30 -85 -60 -259 -176 -530 -422 -710 -645 -22 -28
-45 -57 -52 -65 -78 -95 -243 -340 -243 -360 0 -5 -4 -10 -8 -10 -8 0 -29 -37
-116 -209 -86 -169 -153 -344 -230 -598 -18 -57 -64 -264 -71 -316 -4 -31 -13
-91 -20 -134 -14 -86 -20 -210 -20 -413 0 -228 5 -309 26 -455 6 -38 13 -86
16 -105 10 -77 84 -362 124 -480 57 -170 169 -433 190 -446 5 -3 9 -12 9 -21
0 -8 8 -27 18 -41 11 -15 32 -52 49 -82 31 -58 113 -191 123 -200 3 -3 25 -34
49 -70 24 -36 69 -96 100 -135 31 -38 59 -74 63 -80 49 -66 291 -312 378 -385
30 -25 70 -59 90 -76 193 -168 562 -391 840 -509 36 -15 79 -33 95 -40 42 -18
266 -96 289 -101 11 -2 40 -10 65 -18 49 -15 260 -66 295 -71 12 -2 39 -6 61
-10 45 -9 47 -9 130 -19 33 -4 71 -10 85 -12 111 -20 595 -27 745 -11 39 4 89
9 113 12 73 7 282 45 392 71 58 14 115 27 127 29 36 8 231 72 318 104 72 26
112 42 210 86 154 68 342 170 495 269 82 54 305 217 320 235 3 3 36 33 75 66
116 100 288 277 381 394 10 13 25 29 32 37 36 38 182 241 182 254 0 5 4 10 9
10 5 0 14 14 21 30 7 17 16 30 21 30 5 0 9 4 9 9 0 5 20 44 45 86 117 197 223
441 304 695 21 68 67 246 75 290 2 14 11 63 19 110 34 179 42 295 42 560 -1
212 -6 316 -21 405 -2 17 -6 44 -8 60 -4 29 -35 199 -40 220 -2 6 -6 24 -10
40 -24 102 -31 126 -48 185 -151 494 -384 910 -723 1290 -62 70 -236 240 -295
290 -175 147 -161 136 -271 213 -52 37 -99 71 -104 76 -17 13 -243 145 -320
185 -297 159 -790 321 -1100 362 -27 4 -59 8 -70 10 -11 2 -47 7 -80 10 -33 3
-71 8 -85 11 -31 7 -606 13 -613 7z"/>
</g>
</svg>
